<?xml version="1.0" encoding="UTF-8"?> <svg xmlns="http://www.w3.org/2000/svg" width="3418" height="590" viewBox="0 0 3418 590" fill="none"><path d="M543.934 318.577H600.619L668.513 494.129L736.407 318.577H793.092V586.116H745.695V416.394L679.402 586.116H657.624L591.331 416.394V586.116H543.934V318.577Z" fill="#0E1E1D"></path><path d="M818.331 318.577H992.87V362.951H868.29V430.321H983.903V474.371H868.29V541.742H992.87V586.116H818.331V318.577Z" fill="#0E1E1D"></path><path d="M1017.79 318.577H1123.47C1159.34 318.577 1186.24 327.754 1204.18 346.108C1222.11 364.462 1231.08 392.965 1231.08 431.617V473.076C1231.08 511.295 1222 539.69 1203.86 558.26C1185.92 576.831 1159.13 586.116 1123.47 586.116H1017.79V318.577ZM1124.11 543.361C1143.33 543.361 1157.42 538.071 1166.39 527.49C1175.35 516.694 1179.84 499.851 1179.84 476.962V427.73C1179.84 404.841 1175.35 388.107 1166.39 377.526C1157.42 366.73 1143.22 361.331 1123.79 361.331H1067.75V543.361H1124.11Z" fill="#0E1E1D"></path><path d="M1247.07 540.77H1300.56V363.922H1247.07V318.577H1403.68V363.922H1350.52V540.77H1403.68V586.116H1247.07V540.77Z" fill="#0E1E1D"></path><path d="M1534.29 589.355C1509.74 589.355 1488.71 584.388 1471.2 574.455C1453.91 564.307 1440.78 550.379 1431.81 532.673C1423.06 514.75 1418.68 494.345 1418.68 471.456V432.589C1418.68 409.916 1423.06 389.726 1431.81 372.02C1440.78 354.313 1454.01 340.494 1471.52 330.561C1489.03 320.412 1510.06 315.338 1534.61 315.338C1557.03 315.338 1576.35 319.657 1592.58 328.294C1608.8 336.715 1621.29 348.375 1630.05 363.275C1639.02 378.174 1644.14 395.124 1645.42 414.126L1646.06 429.35H1594.18L1593.86 407.972C1592.79 394.153 1587.13 382.6 1576.89 373.315C1566.64 364.03 1552.55 359.388 1534.61 359.388C1513.26 359.388 1497.14 365.758 1486.25 378.498C1475.36 391.022 1469.92 407.109 1469.92 426.758V477.934C1469.92 497.8 1475.26 513.995 1485.93 526.519C1496.82 539.043 1513.05 545.305 1534.61 545.305C1552.76 545.305 1566.85 540.662 1576.89 531.377C1587.13 521.876 1592.79 510.216 1593.86 496.396L1594.18 475.019H1646.06L1645.42 490.242C1644.14 509.46 1639.02 526.519 1630.05 541.418C1621.29 556.317 1608.7 568.085 1592.26 576.723C1576.03 585.144 1556.71 589.355 1534.29 589.355Z" fill="#0E1E1D"></path><path d="M1723.29 318.577H1791.5L1874.45 586.116H1821.6L1808.79 541.742H1705.99L1693.18 586.116H1640.66L1723.29 318.577ZM1796.3 497.692L1759.79 371.048L1757.55 364.246L1754.99 371.048L1718.48 497.692H1796.3Z" fill="#0E1E1D"></path><path d="M1884.73 318.577H1934.69V541.742H2059.27V586.116H1884.73V318.577Z" fill="#0E1E1D"></path><path d="M648.72 274.017C611.783 274.017 584.562 266.459 567.054 251.344C549.547 236.013 540.793 213.34 540.793 183.326V175.552H591.714V189.804C591.714 204.703 596.198 215.283 605.165 221.545C614.132 227.807 628.97 230.938 649.68 230.938C666.974 230.938 679.464 228.671 687.15 224.137C695.05 219.386 699 211.721 699 201.14V195.31C698.786 188.184 697.292 182.462 694.516 178.143C691.741 173.609 687.257 169.938 681.065 167.131C674.874 164.324 666.12 161.625 654.804 159.033L607.727 145.754C588.085 139.923 572.926 131.286 562.251 119.842C551.789 108.397 546.558 93.1743 546.558 74.1724C546.558 49.9881 554.778 31.6339 571.218 19.1099C587.871 6.36997 612.21 0 644.236 0C677.116 0 701.989 6.69386 718.856 20.0816C735.722 33.2534 744.156 52.4713 744.156 77.7352V87.1282H693.235V75.7918C693.235 63.9156 689.499 55.4943 682.026 50.5279C674.554 45.3455 662.064 42.7544 644.556 42.7544C628.544 42.7544 616.694 44.9137 609.008 49.2323C601.535 53.335 597.799 60.0289 597.799 69.3139V73.2007C597.799 82.0539 601.108 89.0716 607.727 94.254C614.345 99.2204 624.38 103.215 637.831 106.238L685.229 119.194C707.22 125.024 723.553 133.661 734.228 145.106C744.903 156.334 750.241 172.529 750.241 193.69C750.241 221.761 742.127 242.167 725.901 254.907C709.888 267.647 684.161 274.017 648.72 274.017Z" fill="#0E1E1D"></path><path d="M772.101 3.23896H946.64V47.6128H822.06V114.983H937.673V159.033H822.06V226.404H946.64V270.778H772.101V3.23896Z" fill="#0E1E1D"></path><path d="M1074.11 274.017C1050.19 274.017 1029.59 268.942 1012.3 258.794C995.217 248.645 982.193 234.717 973.226 217.011C964.259 199.089 959.775 178.791 959.775 156.118V117.251C959.775 94.5779 964.259 74.3883 973.226 56.6819C982.193 38.9756 995.217 25.156 1012.3 15.2231C1029.59 5.07438 1050.19 0 1074.11 0C1098.02 0 1118.52 5.07438 1135.6 15.2231C1152.89 25.156 1165.91 38.9756 1174.67 56.6819C1183.63 74.3883 1188.12 94.5779 1188.12 117.251V156.118C1188.12 178.791 1183.63 199.089 1174.67 217.011C1165.7 234.717 1152.68 248.645 1135.6 258.794C1118.52 268.942 1098.02 274.017 1074.11 274.017ZM1010.7 162.596C1010.7 182.246 1015.93 198.441 1026.39 211.181C1037.06 223.705 1052.97 229.967 1074.11 229.967C1095.24 229.967 1111.04 223.705 1121.5 211.181C1131.97 198.441 1137.2 182.246 1137.2 162.596V111.097C1137.2 91.8787 1131.86 75.8998 1121.18 63.1599C1110.72 50.4199 1095.03 44.05 1074.11 44.05C1052.97 44.05 1037.06 50.4199 1026.39 63.1599C1015.93 75.6839 1010.7 91.6628 1010.7 111.097V162.596Z" fill="#0E1E1D"></path><path d="M1313.52 274.017C1277.01 274.017 1250.54 266.135 1234.1 250.372C1217.66 234.393 1209.44 208.805 1209.44 173.609V3.23896H1259.72V179.115C1259.72 197.469 1263.99 210.533 1272.53 218.306C1281.07 226.08 1294.73 229.967 1313.52 229.967C1332.31 229.967 1345.87 226.08 1354.19 218.306C1362.73 210.533 1367 197.469 1367 179.115V3.23896H1417.28V173.609C1417.28 197.361 1413.65 216.579 1406.39 231.262C1399.14 245.946 1387.93 256.742 1372.77 263.652C1357.61 270.562 1337.86 274.017 1313.52 274.017Z" fill="#0E1E1D"></path><path d="M1441.72 3.23896H1491.68V226.404H1616.26V270.778H1441.72V3.23896Z" fill="#0E1E1D"></path><path d="M2220.25 587.961C2195.78 587.961 2174.81 583.014 2157.36 573.119C2140.12 563.01 2127.03 549.136 2118.09 531.497C2109.36 513.644 2105 493.317 2105 470.517V431.799C2105 409.214 2109.36 389.102 2118.09 371.464C2127.03 353.825 2140.22 340.059 2157.68 330.164C2175.13 320.055 2196.1 315 2220.57 315C2242.92 315 2262.18 319.302 2278.36 327.906C2294.53 336.295 2306.98 347.91 2315.71 362.752C2324.65 377.594 2329.76 394.479 2331.04 413.408L2331.67 428.572H2279.95L2279.63 407.278C2278.57 393.511 2272.93 382.003 2262.71 372.754C2252.5 363.505 2238.45 358.88 2220.57 358.88C2199.29 358.88 2183.22 365.226 2172.36 377.917C2161.51 390.392 2156.08 406.417 2156.08 425.991V476.97C2156.08 496.759 2161.4 512.891 2172.04 525.367C2182.9 537.843 2199.07 544.081 2220.57 544.081C2238.66 544.081 2252.71 539.456 2262.71 530.207C2272.93 520.742 2278.57 509.127 2279.63 495.361L2279.95 474.066H2331.67L2331.04 489.23C2329.76 508.374 2324.65 525.367 2315.71 540.209C2306.98 555.051 2294.43 566.774 2278.04 575.378C2261.86 583.767 2242.6 587.961 2220.25 587.961Z" fill="#0E1E1D"></path><path d="M2353.01 318.226H2527.01V362.429H2402.81V429.54H2518.07V473.421H2402.81V540.532H2527.01V584.735H2353.01V318.226Z" fill="#0E1E1D"></path><path d="M2551.86 318.226H2599.75L2710.85 497.619V318.226H2758.74V584.735H2710.53L2599.75 405.342V584.735H2551.86V318.226Z" fill="#0E1E1D"></path><path d="M2851.59 362.429H2773.06V318.226H2980.25V362.429H2901.72V584.735H2851.59V362.429Z" fill="#0E1E1D"></path><path d="M2994.46 318.226H3168.46V362.429H3044.27V429.54H3159.52V473.421H3044.27V540.532H3168.46V584.735H2994.46V318.226Z" fill="#0E1E1D"></path><path d="M3350.71 584.735C3348.16 581.723 3346.88 573.764 3346.88 560.859V516.978C3346.88 505.793 3343.79 497.727 3337.62 492.78C3331.66 487.617 3322.72 485.036 3310.8 485.036H3243.12V584.735H3193.32V318.226H3311.76C3340.49 318.226 3361.88 324.679 3375.93 337.585C3390.19 350.276 3397.32 369.958 3397.32 396.63V397.921C3397.32 416.419 3394.13 430.939 3387.74 441.478C3381.36 451.803 3371.78 458.901 3359.01 462.773C3371.57 466.43 3381.04 473.206 3387.42 483.1C3394.02 492.995 3397.32 505.148 3397.32 519.559V560.859C3397.32 573.119 3398.6 581.078 3401.15 584.735H3350.71ZM3310.8 442.446C3322.93 442.446 3331.87 439.758 3337.62 434.38C3343.37 429.003 3346.24 420.076 3346.24 407.6V393.404C3346.24 381.788 3343.26 373.507 3337.3 368.56C3331.55 363.397 3322.3 360.816 3309.53 360.816H3243.12V442.446H3310.8Z" fill="#0E1E1D"></path><path d="M360.854 271.542C384.807 282.142 403.99 295.082 418.404 310.361C441.495 334.375 453.041 369.011 453.041 414.269C453.041 474.305 435.492 517.947 400.394 545.194C365.757 572.441 310.109 586.065 233.447 586.065C153.553 586.065 94.6725 569.901 56.8037 537.574C18.9348 504.785 0 456.294 0 392.102V375.477H88.6299V445.28C88.6301 482.575 118.863 512.808 156.158 512.808H293.326C330.621 512.808 360.854 482.575 360.854 445.28V271.542ZM223.75 0.0209961C294.869 0.021054 348.671 14.3377 385.154 42.9702C421.637 71.1409 439.879 112.243 439.879 166.275V186.364H360.854V141.401C360.854 104.106 330.621 73.8727 293.326 73.8726H156.158C118.863 73.8727 88.6299 104.106 88.6299 141.401V288.711C72.1028 279.436 58.0295 268.643 46.4121 256.329C23.7833 231.852 12.4688 199.294 12.4688 158.655C12.4688 106.932 30.249 67.6774 65.8086 40.8921C101.83 13.645 154.478 0.0209961 223.75 0.0209961Z" fill="#0E1E1D"></path></svg> 