<svg preserveAspectRatio="none" width="100%" height="100%" overflow="visible" style="display: block;" viewBox="0 0 99.5122 24" fill="none" xmlns="http://www.w3.org/2000/svg">
<g id="logo-3" clip-path="url(#clip0_5554_3086)">
<path id="Vector" d="M30.0159 17.1652H37.0122V15.0579H32.5025V7.12033H30.0159V17.1652Z" fill="var(--fill-0, #C1C1C1)"/>
<path id="Vector_2" d="M41.1567 15.7606C40.1592 15.7606 39.6394 14.8895 39.6394 13.583C39.6394 12.2765 40.1592 11.3914 41.1567 11.3914C42.1541 11.3914 42.688 12.2765 42.688 13.583C42.688 14.8895 42.1541 15.7606 41.1567 15.7606ZM41.1707 17.3902C43.4888 17.3902 45.006 15.7465 45.006 13.583C45.006 11.4195 43.4888 9.77577 41.1707 9.77577C38.8667 9.77577 37.3213 11.4195 37.3213 13.583C37.3213 15.7465 38.8667 17.3902 41.1707 17.3902Z" fill="var(--fill-0, #C1C1C1)"/>
<path id="Vector_3" d="M49.0177 19.6521C50.0854 19.6521 51.0267 19.4132 51.6589 18.8513C52.2349 18.3315 52.6142 17.5447 52.6142 16.463V9.97245H50.4226V10.7451H50.3945C49.973 10.141 49.3268 9.76172 48.3715 9.76172C46.5873 9.76172 45.351 11.2509 45.351 13.3582C45.351 15.5639 46.8542 16.7721 48.4698 16.7721C49.3408 16.7721 49.8887 16.4208 50.3102 15.9432H50.3664V16.6597C50.3664 17.5307 49.959 18.0365 48.9896 18.0365C48.231 18.0365 47.8517 17.7133 47.7252 17.334H45.5055C45.7303 18.8372 47.0368 19.6521 49.0177 19.6521ZM49.0037 15.0722C48.1467 15.0722 47.5847 14.3697 47.5847 13.288C47.5847 12.1922 48.1467 11.4897 49.0037 11.4897C49.959 11.4897 50.4647 12.3045 50.4647 13.2739C50.4647 14.2854 50.0011 15.0722 49.0037 15.0722Z" fill="var(--fill-0, #C1C1C1)"/>
<path id="Vector_4" d="M57.1223 15.7606C56.1248 15.7606 55.605 14.8895 55.605 13.583C55.605 12.2765 56.1248 11.3914 57.1223 11.3914C58.1197 11.3914 58.6533 12.2765 58.6533 13.583C58.6533 14.8895 58.1197 15.7606 57.1223 15.7606ZM57.1363 17.3902C59.4541 17.3902 60.9714 15.7465 60.9714 13.583C60.9714 11.4195 59.4541 9.77577 57.1363 9.77577C54.8323 9.77577 53.2869 11.4195 53.2869 13.583C53.2869 15.7465 54.8323 17.3902 57.1363 17.3902Z" fill="var(--fill-0, #C1C1C1)"/>
<path id="Vector_5" d="M61.64 17.1652H63.93V9.97223H61.64V17.1652ZM61.64 8.97477H63.93V7.12033H61.64V8.97477Z" fill="var(--fill-0, #C1C1C1)"/>
<path id="Vector_6" d="M64.9237 19.5397H67.2136V16.4208H67.2417C67.6913 17.0249 68.3516 17.3902 69.2788 17.3902C71.1613 17.3902 72.4117 15.901 72.4117 13.5689C72.4117 11.4054 71.2456 9.76172 69.335 9.76172C68.3516 9.76172 67.6491 10.1972 67.1574 10.8435H67.1153V9.97245H64.9237V19.5397ZM68.6887 15.6201C67.7053 15.6201 67.1434 14.8193 67.1434 13.6532C67.1434 12.4872 67.6491 11.6021 68.6466 11.6021C69.63 11.6021 70.0936 12.4169 70.0936 13.6532C70.0936 14.8755 69.5598 15.6201 68.6887 15.6201Z" fill="var(--fill-0, #C1C1C1)"/>
<path id="Vector_7" d="M76.1398 17.3902C78.0223 17.3902 79.4132 16.5754 79.4132 15.0019C79.4132 13.1615 77.924 12.8384 76.6596 12.6277C75.7464 12.4591 74.9316 12.3888 74.9316 11.8831C74.9316 11.4335 75.3671 11.2228 75.9291 11.2228C76.5613 11.2228 76.9968 11.4195 77.0811 12.0657H79.1884C79.076 10.6468 77.9802 9.76172 75.9431 9.76172C74.2432 9.76172 72.8383 10.5485 72.8383 12.0657C72.8383 13.7516 74.173 14.0887 75.4233 14.2995C76.3786 14.4681 77.2496 14.5383 77.2496 15.1845C77.2496 15.6482 76.8141 15.901 76.1257 15.901C75.3671 15.901 74.8895 15.5498 74.8052 14.8333H72.6416C72.7119 16.4208 74.0325 17.3902 76.1398 17.3902Z" fill="var(--fill-0, #C1C1C1)"/>
<path id="Vector_8" d="M82.5227 17.3764C83.5202 17.3764 84.1524 16.983 84.6722 16.2806H84.7144V17.1656H86.906V9.97266H84.616V13.9906C84.616 14.8476 84.1384 15.4376 83.3516 15.4376C82.6211 15.4376 82.2699 15.0021 82.2699 14.2154V9.97266H79.994V14.693C79.994 16.2946 80.865 17.3764 82.5227 17.3764Z" fill="var(--fill-0, #C1C1C1)"/>
<path id="Vector_9" d="M87.9017 17.1654H90.1917V13.1334C90.1917 12.2765 90.6132 11.6724 91.3297 11.6724C92.018 11.6724 92.3412 12.1219 92.3412 12.8946V17.1654H94.6311V13.1334C94.6311 12.2765 95.0385 11.6724 95.7691 11.6724C96.4575 11.6724 96.7806 12.1219 96.7806 12.8946V17.1654H99.0705V12.4872C99.0705 10.8716 98.2557 9.76172 96.626 9.76172C95.6988 9.76172 94.9261 10.1551 94.3642 11.0261H94.3361C93.9708 10.2534 93.2543 9.76172 92.3131 9.76172C91.2735 9.76172 90.5851 10.2534 90.1355 10.998H90.0934V9.97245H87.9017V17.1654Z" fill="var(--fill-0, #C1C1C1)"/>
<path id="Vector_10" fill-rule="evenodd" clip-rule="evenodd" d="M11.7653 23.6044C18.2311 23.6044 23.4726 18.3629 23.4726 11.8971C23.4726 5.43137 18.2311 0.189835 11.7653 0.189835C5.29954 0.189835 0.0580025 5.43137 0.0580025 11.8971C0.0580025 18.3629 5.29954 23.6044 11.7653 23.6044ZM13.5723 9.23523C14.5703 8.23724 14.5703 6.61923 13.5723 5.62124C12.5743 4.62327 10.9563 4.62327 9.95833 5.62124C8.9604 6.61923 8.9604 8.23724 9.95833 9.23523L11.7653 11.0422L13.5723 9.23523ZM14.4272 13.7042C15.4252 14.7021 17.0432 14.7021 18.0412 13.7042C19.0392 12.7062 19.0392 11.0882 18.0412 10.0902C17.0432 9.09223 15.4252 9.09223 14.4272 10.0902L12.6203 11.8972L14.4272 13.7042ZM13.5723 18.1731C14.5703 17.1751 14.5703 15.5571 13.5723 14.5591L11.7653 12.7521L9.95833 14.5591C8.9604 15.5571 8.9604 17.1751 9.95833 18.1731C10.9563 19.1711 12.5743 19.1711 13.5723 18.1731ZM5.4894 13.7042C4.49144 12.7062 4.49144 11.0882 5.4894 10.0902C6.4874 9.09223 8.10541 9.09223 9.1034 10.0902L10.9104 11.8972L9.1034 13.7042C8.10541 14.7021 6.4874 14.7021 5.4894 13.7042Z" fill="var(--fill-0, #C1C1C1)"/>
</g>
<defs>
<clipPath id="clip0_5554_3086">
<rect width="99.5122" height="24" fill="white"/>
</clipPath>
</defs>
</svg>
