<svg preserveAspectRatio="none" width="100%" height="100%" overflow="visible" style="display: block;" viewBox="0 0 97.7561 24" fill="none" xmlns="http://www.w3.org/2000/svg">
<g id="logo-2" clip-path="url(#clip0_5554_3074)">
<path id="Vector" d="M28.4661 16.8558H35.4624V14.7485H30.9528V6.81093H28.4661V16.8558Z" fill="var(--fill-0, #C1C1C1)"/>
<path id="Vector_2" d="M39.6069 15.4489C38.6094 15.4489 38.0896 14.5778 38.0896 13.2713C38.0896 11.9648 38.6094 11.0797 39.6069 11.0797C40.6044 11.0797 41.1382 11.9648 41.1382 13.2713C41.1382 14.5778 40.6044 15.4489 39.6069 15.4489ZM39.621 17.0785C41.939 17.0785 43.4563 15.4348 43.4563 13.2713C43.4563 11.1078 41.939 9.46408 39.621 9.46408C37.317 9.46408 35.7716 11.1078 35.7716 13.2713C35.7716 15.4348 37.317 17.0785 39.621 17.0785Z" fill="var(--fill-0, #C1C1C1)"/>
<path id="Vector_3" d="M47.468 19.3403C48.5357 19.3403 49.4769 19.1015 50.1091 18.5395C50.6851 18.0197 51.0644 17.233 51.0644 16.1512V9.66071H48.8728V10.4334H48.8447C48.4233 9.8293 47.777 9.44998 46.8217 9.44998C45.0375 9.44998 43.8012 10.9392 43.8012 13.0465C43.8012 15.2521 45.3044 16.4603 46.9201 16.4603C47.7911 16.4603 48.339 16.1091 48.7604 15.6314H48.8166V16.3479C48.8166 17.219 48.4092 17.7247 47.4399 17.7247C46.6812 17.7247 46.3019 17.4016 46.1755 17.0223H43.9558C44.1805 18.5255 45.4871 19.3403 47.468 19.3403ZM47.4539 14.7604C46.5969 14.7604 46.035 14.058 46.035 12.9762C46.035 11.8804 46.5969 11.178 47.4539 11.178C48.4092 11.178 48.915 11.9928 48.915 12.9622C48.915 13.9737 48.4514 14.7604 47.4539 14.7604Z" fill="var(--fill-0, #C1C1C1)"/>
<path id="Vector_4" d="M55.5725 15.4489C54.5751 15.4489 54.0553 14.5778 54.0553 13.2713C54.0553 11.9648 54.5751 11.0797 55.5725 11.0797C56.57 11.0797 57.1038 11.9648 57.1038 13.2713C57.1038 14.5778 56.57 15.4489 55.5725 15.4489ZM55.5866 17.0785C57.9046 17.0785 59.4221 15.4348 59.4221 13.2713C59.4221 11.1078 57.9046 9.46408 55.5866 9.46408C53.2826 9.46408 51.7372 11.1078 51.7372 13.2713C51.7372 15.4348 53.2826 17.0785 55.5866 17.0785Z" fill="var(--fill-0, #C1C1C1)"/>
<path id="Vector_5" d="M60.0903 16.8558H62.3802V9.66283H60.0903V16.8558ZM60.0903 8.66537H62.3802V6.81093H60.0903V8.66537Z" fill="var(--fill-0, #C1C1C1)"/>
<path id="Vector_6" d="M63.3739 19.2279H65.6639V16.1091H65.692C66.1415 16.7132 66.8018 17.0785 67.729 17.0785C69.6116 17.0785 70.8619 15.5893 70.8619 13.2572C70.8619 11.0937 69.6959 9.44998 67.7852 9.44998C66.8018 9.44998 66.0994 9.88549 65.6077 10.5317H65.5655V9.66071H63.3739V19.2279ZM67.139 15.3083C66.1556 15.3083 65.5936 14.5075 65.5936 13.3415C65.5936 12.1754 66.0994 11.2904 67.0968 11.2904C68.0803 11.2904 68.5439 12.1052 68.5439 13.3415C68.5439 14.5637 68.01 15.3083 67.139 15.3083Z" fill="var(--fill-0, #C1C1C1)"/>
<path id="Vector_7" d="M74.5901 17.0785C76.4726 17.0785 77.8634 16.2636 77.8634 14.6902C77.8634 12.8498 76.3742 12.5267 75.1099 12.3159C74.1967 12.1473 73.3819 12.0771 73.3819 11.5713C73.3819 11.1218 73.8174 10.9111 74.3793 10.9111C75.0115 10.9111 75.447 11.1077 75.5313 11.754H77.6386C77.5262 10.3351 76.4304 9.44998 74.3934 9.44998C72.6935 9.44998 71.2886 10.2367 71.2886 11.754C71.2886 13.4398 72.6232 13.777 73.8736 13.9877C74.8289 14.1563 75.6999 14.2266 75.6999 14.8728C75.6999 15.3364 75.2644 15.5893 74.576 15.5893C73.8174 15.5893 73.3397 15.2381 73.2554 14.5216H71.0919C71.1621 16.1091 72.4827 17.0785 74.5901 17.0785Z" fill="var(--fill-0, #C1C1C1)"/>
<path id="Vector_8" d="M80.973 17.0646C81.9705 17.0646 82.6027 16.6713 83.1225 15.9688H83.1646V16.8539H85.3562V9.66092H83.0663V13.6789C83.0663 14.5358 82.5886 15.1259 81.8019 15.1259C81.0713 15.1259 80.7201 14.6904 80.7201 13.9037V9.66092H78.4442V14.3813C78.4442 15.9829 79.3152 17.0646 80.973 17.0646Z" fill="var(--fill-0, #C1C1C1)"/>
<path id="Vector_9" d="M86.352 16.8537H88.642V12.8217C88.642 11.9647 89.0634 11.3606 89.7799 11.3606C90.4683 11.3606 90.7914 11.8102 90.7914 12.5829V16.8537H93.0814V12.8217C93.0814 11.9647 93.4888 11.3606 94.2193 11.3606C94.9077 11.3606 95.2308 11.8102 95.2308 12.5829V16.8537H97.5208V12.1754C97.5208 10.5598 96.706 9.44998 95.0763 9.44998C94.1491 9.44998 93.3764 9.84335 92.8145 10.7144H92.7864C92.4211 9.94169 91.7046 9.44998 90.7633 9.44998C89.7237 9.44998 89.0353 9.94169 88.5858 10.6863H88.5436V9.66071H86.352V16.8537Z" fill="var(--fill-0, #C1C1C1)"/>
<path id="Vector_10" fill-rule="evenodd" clip-rule="evenodd" d="M5.06399 2.27718C4.22653 2.86276 3.46924 3.5551 2.81185 4.33447C5.49827 4.08506 8.91127 4.49231 12.8737 6.47356C17.1051 8.58919 20.5124 8.66072 22.8837 8.20331C22.6685 7.55186 22.3976 6.92575 22.0768 6.33055C19.3623 6.61685 15.8823 6.23789 11.8266 4.21012C9.25125 2.92243 6.98108 2.39199 5.06399 2.27718ZM20.4911 4.07354C18.3474 1.67843 15.2322 0.171112 11.7648 0.171112C10.7466 0.171112 9.75858 0.301126 8.81673 0.545442C10.0924 0.893503 11.4475 1.40271 12.8737 2.11585C15.8431 3.60049 18.4066 4.07852 20.4911 4.07354ZM23.3907 10.49C20.5259 11.0557 16.57 10.9395 11.8266 8.56782C7.39212 6.35057 3.86264 6.37849 1.48224 6.90749C1.35937 6.93477 1.23939 6.96345 1.12231 6.9933C0.810658 7.6711 0.561885 8.38384 0.383388 9.12398C0.574033 9.07305 0.771034 9.02464 0.974291 8.97945C3.86214 8.33771 7.94243 8.36558 12.8737 10.8313C17.3083 13.0485 20.8377 13.0206 23.2182 12.4916C23.2997 12.4735 23.3801 12.4548 23.4591 12.4354C23.4678 12.2509 23.4721 12.0651 23.4721 11.8784C23.4721 11.4087 23.4445 10.9453 23.3907 10.49ZM23.0769 14.9061C20.2399 15.4021 16.3991 15.2117 11.8266 12.9255C7.39212 10.7083 3.86264 10.7362 1.48224 11.2652C0.953856 11.3826 0.478532 11.5256 0.0592293 11.6765C0.0580861 11.7437 0.0575142 11.811 0.0575142 11.8784C0.0575142 18.3442 5.29905 23.5857 11.7648 23.5857C17.1836 23.5857 21.7425 19.9043 23.0769 14.9061Z" fill="var(--fill-0, #C1C1C1)"/>
</g>
<defs>
<clipPath id="clip0_5554_3074">
<rect width="97.7561" height="24" fill="white"/>
</clipPath>
</defs>
</svg>
