<svg preserveAspectRatio="none" width="100%" height="100%" overflow="visible" style="display: block;" viewBox="0 0 98.3415 24" fill="none" xmlns="http://www.w3.org/2000/svg">
<g id="Logo">
<path id="Vector" d="M28.8434 16.9472H35.8397V14.8399H31.3301V6.90234H28.8434V16.9472Z" fill="var(--fill-0, #C1C1C1)"/>
<path id="Vector_2" d="M39.9866 15.5426C38.9891 15.5426 38.4693 14.6716 38.4693 13.3651C38.4693 12.0585 38.9891 11.1734 39.9866 11.1734C40.984 11.1734 41.5179 12.0585 41.5179 13.3651C41.5179 14.6716 40.984 15.5426 39.9866 15.5426ZM40.0006 17.1723C42.3187 17.1723 43.8359 15.5286 43.8359 13.3651C43.8359 11.2015 42.3187 9.55783 40.0006 9.55783C37.6966 9.55783 36.1513 11.2015 36.1513 13.3651C36.1513 15.5286 37.6966 17.1723 40.0006 17.1723Z" fill="var(--fill-0, #C1C1C1)"/>
<path id="Vector_3" d="M47.8477 19.4341C48.9154 19.4341 49.8567 19.1952 50.4889 18.6333C51.0649 18.1135 51.4442 17.3268 51.4442 16.245V9.75446H49.2526V10.5271H49.2245C48.803 9.92305 48.1568 9.54373 47.2015 9.54373C45.4173 9.54373 44.181 11.0329 44.181 13.1402C44.181 15.3459 45.6842 16.5541 47.2998 16.5541C48.1708 16.5541 48.7187 16.2029 49.1402 15.7252H49.1964V16.4417C49.1964 17.3127 48.789 17.8185 47.8196 17.8185C47.061 17.8185 46.6817 17.4953 46.5552 17.116H44.3355C44.5603 18.6192 45.8668 19.4341 47.8477 19.4341ZM47.8337 14.8542C46.9767 14.8542 46.4147 14.1517 46.4147 13.07C46.4147 11.9742 46.9767 11.2717 47.8337 11.2717C48.789 11.2717 49.2947 12.0866 49.2947 13.0559C49.2947 14.0674 48.8311 14.8542 47.8337 14.8542Z" fill="var(--fill-0, #C1C1C1)"/>
<path id="Vector_4" d="M55.9499 15.5426C54.9524 15.5426 54.4326 14.6716 54.4326 13.3651C54.4326 12.0585 54.9524 11.1734 55.9499 11.1734C56.9474 11.1734 57.4812 12.0585 57.4812 13.3651C57.4812 14.6716 56.9474 15.5426 55.9499 15.5426ZM55.9639 17.1723C58.282 17.1723 59.799 15.5286 59.799 13.3651C59.799 11.2015 58.282 9.55783 55.9639 9.55783C53.6599 9.55783 52.1146 11.2015 52.1146 13.3651C52.1146 15.5286 53.6599 17.1723 55.9639 17.1723Z" fill="var(--fill-0, #C1C1C1)"/>
<path id="Vector_5" d="M60.4677 16.9472H62.7576V9.75425H60.4677V16.9472ZM60.4677 8.75678H62.7576V6.90234H60.4677V8.75678Z" fill="var(--fill-0, #C1C1C1)"/>
<path id="Vector_6" d="M63.7513 19.3217H66.0412V16.2029H66.0693C66.5189 16.807 67.1792 17.1722 68.1064 17.1722C69.989 17.1722 71.2393 15.683 71.2393 13.351C71.2393 11.1874 70.0732 9.54373 68.1626 9.54373C67.1792 9.54373 66.4768 9.97924 65.9851 10.6255H65.9429V9.75446H63.7513V19.3217ZM67.5164 15.4021C66.533 15.4021 65.971 14.6013 65.971 13.4352C65.971 12.2692 66.4768 11.3841 67.4742 11.3841C68.4576 11.3841 68.9212 12.199 68.9212 13.4352C68.9212 14.6575 68.3874 15.4021 67.5164 15.4021Z" fill="var(--fill-0, #C1C1C1)"/>
<path id="Vector_7" d="M74.9673 17.1722C76.8499 17.1722 78.2407 16.3574 78.2407 14.7839C78.2407 12.9435 76.7515 12.6204 75.4871 12.4097C74.574 12.2411 73.7591 12.1709 73.7591 11.6651C73.7591 11.2155 74.1947 11.0048 74.7566 11.0048C75.3888 11.0048 75.8243 11.2015 75.9086 11.8477H78.0159C77.9035 10.4288 76.8077 9.54373 74.7707 9.54373C73.0708 9.54373 71.6659 10.3305 71.6659 11.8477C71.6659 13.5336 73.0005 13.8708 74.2509 14.0815C75.2062 14.2501 76.0772 14.3203 76.0772 14.9666C76.0772 15.4302 75.6417 15.683 74.9533 15.683C74.1947 15.683 73.717 15.3318 73.6327 14.6153H71.4692C71.5394 16.2029 72.86 17.1722 74.9673 17.1722Z" fill="var(--fill-0, #C1C1C1)"/>
<path id="Vector_8" d="M81.3527 17.1584C82.3501 17.1584 82.9823 16.765 83.5021 16.0626H83.5443V16.9476H85.7359V9.75467H83.4459V13.7726C83.4459 14.6296 82.9683 15.2196 82.1816 15.2196C81.451 15.2196 81.0998 14.7841 81.0998 13.9974V9.75467H78.8239V14.4751C78.8239 16.0766 79.6949 17.1584 81.3527 17.1584Z" fill="var(--fill-0, #C1C1C1)"/>
<path id="Vector_9" d="M86.7318 16.9474H89.0217V12.9154C89.0217 12.0585 89.4432 11.4544 90.1597 11.4544C90.8481 11.4544 91.1712 11.9039 91.1712 12.6766V16.9474H93.4611V12.9154C93.4611 12.0585 93.8685 11.4544 94.5991 11.4544C95.2875 11.4544 95.6106 11.9039 95.6106 12.6766V16.9474H97.9005V12.2692C97.9005 10.6536 97.0857 9.54373 95.4561 9.54373C94.5288 9.54373 93.7562 9.9371 93.1942 10.8081H93.1661C92.8008 10.0354 92.0843 9.54373 91.1431 9.54373C90.1035 9.54373 89.4151 10.0354 88.9655 10.78H88.9234V9.75446H86.7318V16.9474Z" fill="var(--fill-0, #C1C1C1)"/>
<path id="Vector_10" d="M14.8724 1.15829L12.5701 0.541397L10.63 7.78212L8.87842 1.24515L6.57611 1.86204L8.4686 8.92475L3.75486 4.21104L2.06948 5.89642L7.23986 11.0668L0.800978 9.34153L0.184086 11.6438L7.21937 13.5289C7.13883 13.1815 7.09621 12.8195 7.09621 12.4475C7.09621 9.8148 9.23046 7.68056 11.8632 7.68056C14.4959 7.68056 16.6302 9.8148 16.6302 12.4475C16.6302 12.8171 16.5881 13.1769 16.5085 13.5222L22.9023 15.2354L23.5192 12.9332L16.4559 11.0406L22.8952 9.31513L22.2783 7.01289L15.2154 8.90538L19.9291 4.19169L18.2437 2.50631L13.145 7.60499L14.8724 1.15829Z" fill="var(--fill-0, #C1C1C1)"/>
<path id="Vector_11" d="M16.5036 13.5469C16.3062 14.3814 15.8894 15.1311 15.3177 15.7317L19.9497 20.3638L21.635 18.6784L16.5036 13.5469Z" fill="var(--fill-0, #C1C1C1)"/>
<path id="Vector_12" d="M15.2704 15.7805C14.6917 16.3715 13.9605 16.8126 13.1404 17.0399L14.8259 23.3302L17.1281 22.7133L15.2704 15.7805Z" fill="var(--fill-0, #C1C1C1)"/>
<path id="Vector_13" d="M13.054 17.0631C12.6735 17.1609 12.2747 17.2129 11.8637 17.2129C11.4234 17.2129 10.997 17.1531 10.5922 17.0414L8.90517 23.3375L11.2074 23.9543L13.054 17.0631Z" fill="var(--fill-0, #C1C1C1)"/>
<path id="Vector_14" d="M10.5108 17.0186C9.70327 16.78 8.98496 16.3334 8.4181 15.7406L3.77469 20.384L5.46007 22.0694L10.5108 17.0186Z" fill="var(--fill-0, #C1C1C1)"/>
<path id="Vector_15" d="M8.38065 15.7C7.8235 15.1035 7.41767 14.3638 7.2245 13.5422L0.809849 15.261L1.42674 17.5633L8.38065 15.7Z" fill="var(--fill-0, #C1C1C1)"/>
</g>
</svg>
