<svg preserveAspectRatio="none" width="100%" height="100%" overflow="visible" style="display: block;" viewBox="0 0 84.5 20" fill="none" xmlns="http://www.w3.org/2000/svg">
<g id="Logo" clip-path="url(#clip0_5557_3038)">
<path id="Vector" fill-rule="evenodd" clip-rule="evenodd" d="M5.0072 1.25V20H-0.000195185V1.25H5.0072Z" fill="var(--fill-0, white)"/>
<path id="Vector_2" fill-rule="evenodd" clip-rule="evenodd" d="M7.5112 1.25H18.1519C21.6088 1.25 24.4112 4.04822 24.4112 7.5C24.4112 10.9518 21.6088 13.75 18.1519 13.75H12.5186V20H7.5112V1.25ZM12.5186 8.75H18.1519C18.8433 8.75 19.4038 8.19035 19.4038 7.5C19.4038 6.80965 18.8433 6.25 18.1519 6.25H12.5186V8.75Z" fill="var(--fill-0, white)"/>
<path id="Vector_3" fill-rule="evenodd" clip-rule="evenodd" d="M43.1892 1.25V10.9375C43.1892 13.1811 45.0107 15 47.2577 15C49.5047 15 51.3263 13.1811 51.3263 10.9375V1.25H56.3338V10.9375C56.3338 15.9426 52.2703 20 47.2577 20C42.2452 20 38.1818 15.9426 38.1818 10.9375V1.25H43.1892Z" fill="var(--fill-0, white)"/>
<path id="Vector_4" fill-rule="evenodd" clip-rule="evenodd" d="M26.2889 10C26.2889 5.1675 30.2122 1.25 35.0519 1.25H36.3037V6.25H35.0519C32.9777 6.25 31.2963 7.92895 31.2963 10V10.625C31.2963 15.8026 27.0928 20 21.9074 20H21.2815V15H21.9074C24.3273 15 26.2889 13.0412 26.2889 10.625V10Z" fill="var(--fill-0, white)"/>
<path id="Vector_5" d="M84.4999 1.875C84.4999 2.91053 83.6594 3.75 82.6219 3.75C81.5849 3.75 80.7444 2.91053 80.7444 1.875C80.7444 0.839465 81.5849 0 82.6219 0C83.6594 0 84.4999 0.839465 84.4999 1.875Z" fill="var(--fill-0, white)"/>
<path id="Vector_6" d="M61.7103 20.0004L64.0998 10.0095L65.8763 16.0201C66.9353 19.605 72.0208 19.605 73.0803 16.0201L74.8563 10.0095L77.2458 20.0004H82.3938L78.6368 4.29018C77.7433 0.55415 72.4708 0.415821 71.3818 4.09989L69.4783 10.5421L67.5743 4.09989C66.4858 0.415843 61.2128 0.554131 60.3193 4.29017L56.5623 20.0004H61.7103Z" fill="var(--fill-0, white)"/>
</g>
<defs>
<clipPath id="clip0_5557_3038">
<rect width="84.5" height="20" fill="white"/>
</clipPath>
</defs>
</svg>
