<svg preserveAspectRatio="none" width="100%" height="100%" overflow="visible" style="display: block;" viewBox="0 0 97.7561 24" fill="none" xmlns="http://www.w3.org/2000/svg">
<g id="Logo" clip-path="url(#clip0_5554_3033)">
<path id="Vector" d="M28.4678 16.8558H35.4641V14.7485H30.9544V6.81093H28.4678V16.8558Z" fill="var(--fill-0, #C1C1C1)"/>
<path id="Vector_2" d="M39.6087 15.4489C38.6112 15.4489 38.0914 14.5778 38.0914 13.2713C38.0914 11.9648 38.6112 11.0797 39.6087 11.0797C40.6061 11.0797 41.14 11.9648 41.14 13.2713C41.14 14.5778 40.6061 15.4489 39.6087 15.4489ZM39.6227 17.0785C41.9407 17.0785 43.458 15.4348 43.458 13.2713C43.458 11.1078 41.9407 9.46408 39.6227 9.46408C37.3187 9.46408 35.7733 11.1078 35.7733 13.2713C35.7733 15.4348 37.3187 17.0785 39.6227 17.0785Z" fill="var(--fill-0, #C1C1C1)"/>
<path id="Vector_3" d="M47.4698 19.3403C48.5375 19.3403 49.4788 19.1015 50.111 18.5395C50.687 18.0197 51.0663 17.233 51.0663 16.1512V9.66071H48.8747V10.4334H48.8466C48.4251 9.8293 47.7789 9.44998 46.8235 9.44998C45.0394 9.44998 43.8031 10.9392 43.8031 13.0465C43.8031 15.2521 45.3063 16.4603 46.9219 16.4603C47.7929 16.4603 48.3408 16.1091 48.7623 15.6314H48.8185V16.3479C48.8185 17.219 48.4111 17.7247 47.4417 17.7247C46.6831 17.7247 46.3037 17.4016 46.1773 17.0223H43.9576C44.1824 18.5255 45.4889 19.3403 47.4698 19.3403ZM47.4557 14.7604C46.5988 14.7604 46.0368 14.058 46.0368 12.9762C46.0368 11.8804 46.5988 11.178 47.4557 11.178C48.4111 11.178 48.9168 11.9928 48.9168 12.9622C48.9168 13.9737 48.4532 14.7604 47.4557 14.7604Z" fill="var(--fill-0, #C1C1C1)"/>
<path id="Vector_4" d="M55.5744 15.4489C54.5769 15.4489 54.0571 14.5778 54.0571 13.2713C54.0571 11.9648 54.5769 11.0797 55.5744 11.0797C56.5718 11.0797 57.1057 11.9648 57.1057 13.2713C57.1057 14.5778 56.5718 15.4489 55.5744 15.4489ZM55.5884 17.0785C57.9064 17.0785 59.4239 15.4348 59.4239 13.2713C59.4239 11.1078 57.9064 9.46408 55.5884 9.46408C53.2844 9.46408 51.739 11.1078 51.739 13.2713C51.739 15.4348 53.2844 17.0785 55.5884 17.0785Z" fill="var(--fill-0, #C1C1C1)"/>
<path id="Vector_5" d="M60.0921 16.8558H62.3821V9.66283H60.0921V16.8558ZM60.0921 8.66537H62.3821V6.81093H60.0921V8.66537Z" fill="var(--fill-0, #C1C1C1)"/>
<path id="Vector_6" d="M63.3758 19.2279H65.6657V16.1091H65.6938C66.1434 16.7132 66.8037 17.0785 67.7309 17.0785C69.6134 17.0785 70.8638 15.5893 70.8638 13.2572C70.8638 11.0937 69.6977 9.44998 67.7871 9.44998C66.8037 9.44998 66.1012 9.88549 65.6095 10.5317H65.5674V9.66071H63.3758V19.2279ZM67.1408 15.3083C66.1574 15.3083 65.5955 14.5075 65.5955 13.3415C65.5955 12.1754 66.1012 11.2904 67.0987 11.2904C68.0821 11.2904 68.5457 12.1052 68.5457 13.3415C68.5457 14.5637 68.0118 15.3083 67.1408 15.3083Z" fill="var(--fill-0, #C1C1C1)"/>
<path id="Vector_7" d="M74.5918 17.0785C76.4743 17.0785 77.8652 16.2636 77.8652 14.6902C77.8652 12.8498 76.376 12.5267 75.1116 12.3159C74.1984 12.1473 73.3836 12.0771 73.3836 11.5713C73.3836 11.1218 73.8191 10.9111 74.3811 10.9111C75.0133 10.9111 75.4488 11.1077 75.5331 11.754H77.6404C77.528 10.3351 76.4322 9.44998 74.3951 9.44998C72.6952 9.44998 71.2903 10.2367 71.2903 11.754C71.2903 13.4398 72.625 13.777 73.8753 13.9877C74.8306 14.1563 75.7016 14.2266 75.7016 14.8728C75.7016 15.3364 75.2661 15.5893 74.5777 15.5893C73.8191 15.5893 73.3415 15.2381 73.2572 14.5216H71.0936C71.1639 16.1091 72.4845 17.0785 74.5918 17.0785Z" fill="var(--fill-0, #C1C1C1)"/>
<path id="Vector_8" d="M80.9748 17.0646C81.9723 17.0646 82.6045 16.6713 83.1243 15.9688H83.1664V16.8539H85.3581V9.66092H83.0681V13.6789C83.0681 14.5358 82.5904 15.1259 81.8037 15.1259C81.0732 15.1259 80.722 14.6904 80.722 13.9037V9.66092H78.4461V14.3813C78.4461 15.9829 79.3171 17.0646 80.9748 17.0646Z" fill="var(--fill-0, #C1C1C1)"/>
<path id="Vector_9" d="M86.3538 16.8537H88.6438V12.8217C88.6438 11.9647 89.0653 11.3606 89.7817 11.3606C90.4701 11.3606 90.7933 11.8102 90.7933 12.5829V16.8537H93.0832V12.8217C93.0832 11.9647 93.4906 11.3606 94.2212 11.3606C94.9095 11.3606 95.2327 11.8102 95.2327 12.5829V16.8537H97.5226V12.1754C97.5226 10.5598 96.7078 9.44998 95.0781 9.44998C94.1509 9.44998 93.3782 9.84335 92.8163 10.7144H92.7882C92.4229 9.94169 91.7064 9.44998 90.7652 9.44998C89.7256 9.44998 89.0372 9.94169 88.5876 10.6863H88.5454V9.66071H86.3538V16.8537Z" fill="var(--fill-0, #C1C1C1)"/>
<path id="Vector_10" fill-rule="evenodd" clip-rule="evenodd" d="M5.06582 2.27718C4.22836 2.86276 3.47107 3.5551 2.81368 4.33447C5.5001 4.08506 8.9131 4.49231 12.8756 6.47356C17.1069 8.58919 20.5142 8.66072 22.8855 8.20331C22.6704 7.55186 22.3995 6.92575 22.0786 6.33055C19.3641 6.61685 15.8841 6.23789 11.8285 4.21012C9.25308 2.92243 6.98291 2.39199 5.06582 2.27718ZM20.4929 4.07354C18.3493 1.67843 15.234 0.171112 11.7666 0.171112C10.7484 0.171112 9.76041 0.301126 8.81856 0.545442C10.0942 0.893503 11.4493 1.40271 12.8756 2.11585C15.8449 3.60049 18.4084 4.07852 20.4929 4.07354ZM23.3925 10.49C20.5277 11.0557 16.5718 10.9395 11.8285 8.56782C7.39396 6.35057 3.86448 6.37849 1.48407 6.90749C1.3612 6.93477 1.24122 6.96345 1.12414 6.9933C0.812489 7.6711 0.563716 8.38384 0.38522 9.12398C0.575864 9.07305 0.772865 9.02464 0.976122 8.97945C3.86397 8.33771 7.94426 8.36558 12.8756 10.8313C17.3101 13.0485 20.8396 13.0206 23.22 12.4916C23.3016 12.4735 23.3819 12.4548 23.461 12.4354C23.4696 12.2509 23.474 12.0651 23.474 11.8784C23.474 11.4087 23.4463 10.9453 23.3925 10.49ZM23.0787 14.9061C20.2417 15.4021 16.401 15.2117 11.8285 12.9255C7.39396 10.7083 3.86448 10.7362 1.48407 11.2652C0.955687 11.3826 0.480363 11.5256 0.0610604 11.6765C0.0599171 11.7437 0.0593452 11.811 0.0593452 11.8784C0.0593452 18.3442 5.30088 23.5857 11.7666 23.5857C17.1854 23.5857 21.7444 19.9043 23.0787 14.9061Z" fill="var(--fill-0, #C1C1C1)"/>
</g>
<defs>
<clipPath id="clip0_5554_3033">
<rect width="97.7561" height="24" fill="white"/>
</clipPath>
</defs>
</svg>
