<svg preserveAspectRatio="none" width="100%" height="100%" overflow="visible" style="display: block;" viewBox="0 0 99.5122 24" fill="none" xmlns="http://www.w3.org/2000/svg">
<g id="Logo" clip-path="url(#clip0_5554_3045)">
<path id="Vector" d="M30.3569 16.4714H37.3532V14.3641H32.8435V6.42654H30.3569V16.4714Z" fill="var(--fill-0, #C1C1C1)"/>
<path id="Vector_2" d="M41.5001 15.0668C40.5027 15.0668 39.9829 14.1958 39.9829 12.8893C39.9829 11.5827 40.5027 10.6976 41.5001 10.6976C42.4976 10.6976 43.0314 11.5827 43.0314 12.8893C43.0314 14.1958 42.4976 15.0668 41.5001 15.0668ZM41.5142 16.6965C43.8322 16.6965 45.3495 15.0528 45.3495 12.8893C45.3495 10.7257 43.8322 9.08203 41.5142 9.08203C39.2102 9.08203 37.6648 10.7257 37.6648 12.8893C37.6648 15.0528 39.2102 16.6965 41.5142 16.6965Z" fill="var(--fill-0, #C1C1C1)"/>
<path id="Vector_3" d="M49.3611 18.9583C50.4288 18.9583 51.3701 18.7195 52.0023 18.1575C52.5783 17.6377 52.9576 16.851 52.9576 15.7692V9.27871H50.766V10.0514H50.7379C50.3164 9.4473 49.6702 9.06798 48.7148 9.06798C46.9306 9.06798 45.6944 10.5571 45.6944 12.6645C45.6944 14.8701 47.1976 16.0783 48.8132 16.0783C49.6842 16.0783 50.2321 15.7271 50.6536 15.2494H50.7098V15.9659C50.7098 16.837 50.3024 17.3427 49.333 17.3427C48.5744 17.3427 48.195 17.0196 48.0686 16.6403H45.8489C46.0737 18.1435 47.3802 18.9583 49.3611 18.9583ZM49.347 14.3784C48.4901 14.3784 47.9281 13.676 47.9281 12.5942C47.9281 11.4984 48.4901 10.796 49.347 10.796C50.3024 10.796 50.8081 11.6108 50.8081 12.5802C50.8081 13.5917 50.3445 14.3784 49.347 14.3784Z" fill="var(--fill-0, #C1C1C1)"/>
<path id="Vector_4" d="M57.4633 15.0668C56.4658 15.0668 55.946 14.1958 55.946 12.8893C55.946 11.5827 56.4658 10.6976 57.4633 10.6976C58.4607 10.6976 58.9946 11.5827 58.9946 12.8893C58.9946 14.1958 58.4607 15.0668 57.4633 15.0668ZM57.4773 16.6965C59.7954 16.6965 61.3126 15.0528 61.3126 12.8893C61.3126 10.7257 59.7954 9.08203 57.4773 9.08203C55.1733 9.08203 53.6279 10.7257 53.6279 12.8893C53.6279 15.0528 55.1733 16.6965 57.4773 16.6965Z" fill="var(--fill-0, #C1C1C1)"/>
<path id="Vector_5" d="M61.9812 16.4714H64.2712V9.27845H61.9812V16.4714ZM61.9812 8.28098H64.2712V6.42654H61.9812V8.28098Z" fill="var(--fill-0, #C1C1C1)"/>
<path id="Vector_6" d="M65.2647 18.8459H67.5546V15.7271H67.5827C68.0323 16.3312 68.6926 16.6965 69.6198 16.6965C71.5023 16.6965 72.7527 15.2073 72.7527 12.8752C72.7527 10.7117 71.5866 9.06798 69.676 9.06798C68.6926 9.06798 67.9901 9.50349 67.4984 10.1497H67.4563V9.27871H65.2647V18.8459ZM69.0297 14.9263C68.0463 14.9263 67.4844 14.1255 67.4844 12.9595C67.4844 11.7934 67.9901 10.9084 68.9876 10.9084C69.971 10.9084 70.4346 11.7232 70.4346 12.9595C70.4346 14.1817 69.9008 14.9263 69.0297 14.9263Z" fill="var(--fill-0, #C1C1C1)"/>
<path id="Vector_7" d="M76.4809 16.6965C78.3634 16.6965 79.7543 15.8816 79.7543 14.3082C79.7543 12.4678 78.2651 12.1447 77.0007 11.9339C76.0875 11.7653 75.2727 11.6951 75.2727 11.1893C75.2727 10.7398 75.7082 10.5291 76.2702 10.5291C76.9024 10.5291 77.3379 10.7257 77.4222 11.372H79.5295C79.4171 9.95305 78.3213 9.06798 76.2842 9.06798C74.5843 9.06798 73.1794 9.85471 73.1794 11.372C73.1794 13.0578 74.5141 13.395 75.7644 13.6057C76.7197 13.7743 77.5907 13.8446 77.5907 14.4908C77.5907 14.9544 77.1552 15.2073 76.4668 15.2073C75.7082 15.2073 75.2305 14.8561 75.1463 14.1396H72.9827C73.053 15.7271 74.3736 16.6965 76.4809 16.6965Z" fill="var(--fill-0, #C1C1C1)"/>
<path id="Vector_8" d="M82.8661 16.6826C83.8636 16.6826 84.4958 16.2893 85.0156 15.5868H85.0577V16.4719H87.2494V9.27892H84.9594V13.2969C84.9594 14.1538 84.4818 14.7439 83.695 14.7439C82.9645 14.7439 82.6133 14.3084 82.6133 13.5216V9.27892H80.3374V13.9993C80.3374 15.6009 81.2084 16.6826 82.8661 16.6826Z" fill="var(--fill-0, #C1C1C1)"/>
<path id="Vector_9" d="M88.2451 16.4717H90.5351V12.4397C90.5351 11.5827 90.9565 10.9786 91.673 10.9786C92.3614 10.9786 92.6845 11.4282 92.6845 12.2009V16.4717H94.9745V12.4397C94.9745 11.5827 95.3819 10.9786 96.1125 10.9786C96.8008 10.9786 97.124 11.4282 97.124 12.2009V16.4717H99.4139V11.7934C99.4139 10.1778 98.5991 9.06798 96.9694 9.06798C96.0422 9.06798 95.2695 9.46134 94.7076 10.3324H94.6795C94.3142 9.55969 93.5977 9.06798 92.6564 9.06798C91.6168 9.06798 90.9284 9.55968 90.4789 10.3043H90.4367V9.27871H88.2451V16.4717Z" fill="var(--fill-0, #C1C1C1)"/>
<path id="Vector_10" fill-rule="evenodd" clip-rule="evenodd" d="M12.1088 23.4943C18.5746 23.4943 23.8161 18.2528 23.8161 11.787C23.8161 5.32124 18.5746 0.0796967 12.1088 0.0796967C5.64301 0.0796967 0.401478 5.32124 0.401478 11.787C0.401478 18.2528 5.64301 23.4943 12.1088 23.4943ZM15.7611 5.53346C15.9389 4.90197 15.326 4.52855 14.7664 4.92729L6.95355 10.4931C6.34658 10.9255 6.44205 11.787 7.09696 11.787H9.15429V11.7711H13.1639L9.89682 12.9238L8.45653 18.0406C8.27876 18.6721 8.89152 19.0455 9.45124 18.6467L17.2641 13.0809C17.871 12.6485 17.7755 11.787 17.1206 11.787H14.0008L15.7611 5.53346Z" fill="var(--fill-0, #C1C1C1)"/>
</g>
<defs>
<clipPath id="clip0_5554_3045">
<rect width="99.5122" height="24" fill="white"/>
</clipPath>
</defs>
</svg>
