<svg preserveAspectRatio="none" width="100%" height="100%" overflow="visible" style="display: block;" viewBox="0 0 99.5122 24" fill="none" xmlns="http://www.w3.org/2000/svg">
<g id="logo-4" clip-path="url(#clip0_5554_3098)">
<path id="Vector" d="M30.3569 16.4714H37.3532V14.3641H32.8436V6.42654H30.3569V16.4714Z" fill="var(--fill-0, #C1C1C1)"/>
<path id="Vector_2" d="M41.5001 15.0668C40.5026 15.0668 39.9828 14.1958 39.9828 12.8893C39.9828 11.5827 40.5026 10.6976 41.5001 10.6976C42.4975 10.6976 43.0314 11.5827 43.0314 12.8893C43.0314 14.1958 42.4975 15.0668 41.5001 15.0668ZM41.5141 16.6965C43.8322 16.6965 45.3494 15.0528 45.3494 12.8893C45.3494 10.7257 43.8322 9.08203 41.5141 9.08203C39.2101 9.08203 37.6648 10.7257 37.6648 12.8893C37.6648 15.0528 39.2101 16.6965 41.5141 16.6965Z" fill="var(--fill-0, #C1C1C1)"/>
<path id="Vector_3" d="M49.3612 18.9583C50.4289 18.9583 51.3702 18.7195 52.0024 18.1575C52.5784 17.6377 52.9577 16.851 52.9577 15.7692V9.27871H50.7661V10.0514H50.738C50.3165 9.4473 49.6703 9.06798 48.715 9.06798C46.9308 9.06798 45.6945 10.5571 45.6945 12.6645C45.6945 14.8701 47.1977 16.0783 48.8133 16.0783C49.6843 16.0783 50.2322 15.7271 50.6537 15.2494H50.7099V15.9659C50.7099 16.837 50.3025 17.3427 49.3331 17.3427C48.5745 17.3427 48.1952 17.0196 48.0687 16.6403H45.849C46.0738 18.1435 47.3803 18.9583 49.3612 18.9583ZM49.3472 14.3784C48.4902 14.3784 47.9282 13.676 47.9282 12.5942C47.9282 11.4984 48.4902 10.796 49.3472 10.796C50.3025 10.796 50.8082 11.6108 50.8082 12.5802C50.8082 13.5917 50.3446 14.3784 49.3472 14.3784Z" fill="var(--fill-0, #C1C1C1)"/>
<path id="Vector_4" d="M57.4634 15.0668C56.4659 15.0668 55.9461 14.1958 55.9461 12.8893C55.9461 11.5827 56.4659 10.6976 57.4634 10.6976C58.4609 10.6976 58.9947 11.5827 58.9947 12.8893C58.9947 14.1958 58.4609 15.0668 57.4634 15.0668ZM57.4774 16.6965C59.7955 16.6965 61.3128 15.0528 61.3128 12.8893C61.3128 10.7257 59.7955 9.08203 57.4774 9.08203C55.1734 9.08203 53.6281 10.7257 53.6281 12.8893C53.6281 15.0528 55.1734 16.6965 57.4774 16.6965Z" fill="var(--fill-0, #C1C1C1)"/>
<path id="Vector_5" d="M61.9812 16.4714H64.2711V9.27845H61.9812V16.4714ZM61.9812 8.28098H64.2711V6.42654H61.9812V8.28098Z" fill="var(--fill-0, #C1C1C1)"/>
<path id="Vector_6" d="M65.2648 18.8459H67.5547V15.7271H67.5828C68.0324 16.3312 68.6927 16.6965 69.6199 16.6965C71.5024 16.6965 72.7528 15.2073 72.7528 12.8752C72.7528 10.7117 71.5867 9.06798 69.6761 9.06798C68.6927 9.06798 67.9902 9.50349 67.4985 10.1497H67.4564V9.27871H65.2648V18.8459ZM69.0299 14.9263C68.0464 14.9263 67.4845 14.1255 67.4845 12.9595C67.4845 11.7934 67.9902 10.9084 68.9877 10.9084C69.9711 10.9084 70.4347 11.7232 70.4347 12.9595C70.4347 14.1817 69.9009 14.9263 69.0299 14.9263Z" fill="var(--fill-0, #C1C1C1)"/>
<path id="Vector_7" d="M76.4809 16.6965C78.3635 16.6965 79.7543 15.8816 79.7543 14.3082C79.7543 12.4678 78.2651 12.1447 77.0007 11.9339C76.0876 11.7653 75.2727 11.6951 75.2727 11.1893C75.2727 10.7398 75.7082 10.5291 76.2702 10.5291C76.9024 10.5291 77.3379 10.7257 77.4222 11.372H79.5295C79.4171 9.95305 78.3213 9.06798 76.2842 9.06798C74.5843 9.06798 73.1795 9.85471 73.1795 11.372C73.1795 13.0578 74.5141 13.395 75.7644 13.6057C76.7197 13.7743 77.5908 13.8446 77.5908 14.4908C77.5908 14.9544 77.1553 15.2073 76.4669 15.2073C75.7082 15.2073 75.2306 14.8561 75.1463 14.1396H72.9828C73.053 15.7271 74.3736 16.6965 76.4809 16.6965Z" fill="var(--fill-0, #C1C1C1)"/>
<path id="Vector_8" d="M82.8662 16.6826C83.8636 16.6826 84.4958 16.2893 85.0156 15.5868H85.0578V16.4719H87.2494V9.27892H84.9594V13.2969C84.9594 14.1538 84.4818 14.7439 83.695 14.7439C82.9645 14.7439 82.6133 14.3084 82.6133 13.5216V9.27892H80.3374V13.9993C80.3374 15.6009 81.2084 16.6826 82.8662 16.6826Z" fill="var(--fill-0, #C1C1C1)"/>
<path id="Vector_9" d="M88.2453 16.4717H90.5352V12.4397C90.5352 11.5827 90.9567 10.9786 91.6732 10.9786C92.3615 10.9786 92.6847 11.4282 92.6847 12.2009V16.4717H94.9746V12.4397C94.9746 11.5827 95.382 10.9786 96.1126 10.9786C96.801 10.9786 97.1241 11.4282 97.1241 12.2009V16.4717H99.414V11.7934C99.414 10.1778 98.5992 9.06798 96.9696 9.06798C96.0423 9.06798 95.2696 9.46134 94.7077 10.3324H94.6796C94.3143 9.55969 93.5978 9.06798 92.6566 9.06798C91.617 9.06798 90.9286 9.55968 90.479 10.3043H90.4369V9.27871H88.2453V16.4717Z" fill="var(--fill-0, #C1C1C1)"/>
<path id="Vector_10" fill-rule="evenodd" clip-rule="evenodd" d="M12.1088 23.4943C18.5746 23.4943 23.8162 18.2528 23.8162 11.787C23.8162 5.32124 18.5746 0.0796967 12.1088 0.0796967C5.64304 0.0796967 0.401508 5.32124 0.401508 11.787C0.401508 18.2528 5.64304 23.4943 12.1088 23.4943ZM15.7611 5.53346C15.9389 4.90197 15.3261 4.52855 14.7664 4.92729L6.95358 10.4931C6.34661 10.9255 6.44208 11.787 7.09699 11.787H9.15432V11.7711H13.164L9.89685 12.9238L8.45656 18.0406C8.27879 18.6721 8.89155 19.0455 9.45127 18.6467L17.2641 13.0809C17.8711 12.6485 17.7755 11.787 17.1207 11.787H14.0008L15.7611 5.53346Z" fill="var(--fill-0, #C1C1C1)"/>
</g>
<defs>
<clipPath id="clip0_5554_3098">
<rect width="99.5122" height="24" fill="white"/>
</clipPath>
</defs>
</svg>
